<mxfile host="app.diagrams.net" modified="2022-10-26T13:03:02.453Z" agent="5.0 (Macintosh; Intel Mac OS X 10_15_7) AppleWebKit/537.36 (KHTML, like Gecko) Chrome/106.0.0.0 Safari/537.36" etag="NgmcS6WVjVCqQ7Y6UCDO" version="20.2.7" type="github" pages="2">
  <diagram id="kgpKYQtTHZ0yAKxKKP6v" name="Page-1">
    <mxGraphModel dx="728" dy="478" grid="1" gridSize="10" guides="1" tooltips="1" connect="1" arrows="1" fold="1" page="1" pageScale="1" pageWidth="850" pageHeight="1100" math="0" shadow="0">
      <root>
        <mxCell id="0" />
        <mxCell id="1" parent="0" />
        <mxCell id="xu26yrdLODohL7Gaci-C-8" value="" style="rounded=0;whiteSpace=wrap;html=1;" vertex="1" parent="1">
          <mxGeometry x="540" y="70" width="120" height="310" as="geometry" />
        </mxCell>
        <mxCell id="xu26yrdLODohL7Gaci-C-1" value="User" style="shape=umlActor;verticalLabelPosition=bottom;verticalAlign=top;html=1;outlineConnect=0;" vertex="1" parent="1">
          <mxGeometry x="130" y="170" width="30" height="60" as="geometry" />
        </mxCell>
        <mxCell id="xu26yrdLODohL7Gaci-C-4" value="S3 Data Storage" style="shape=cylinder3;whiteSpace=wrap;html=1;boundedLbl=1;backgroundOutline=1;size=15;" vertex="1" parent="1">
          <mxGeometry x="570" y="80" width="60" height="80" as="geometry" />
        </mxCell>
        <mxCell id="xu26yrdLODohL7Gaci-C-5" value="S3 Data Storage" style="shape=cylinder3;whiteSpace=wrap;html=1;boundedLbl=1;backgroundOutline=1;size=15;" vertex="1" parent="1">
          <mxGeometry x="570" y="170" width="60" height="80" as="geometry" />
        </mxCell>
        <mxCell id="xu26yrdLODohL7Gaci-C-6" value="S3 Data Storage" style="shape=cylinder3;whiteSpace=wrap;html=1;boundedLbl=1;backgroundOutline=1;size=15;" vertex="1" parent="1">
          <mxGeometry x="570" y="270" width="60" height="80" as="geometry" />
        </mxCell>
        <mxCell id="xu26yrdLODohL7Gaci-C-10" value="Cloud Services" style="rounded=0;whiteSpace=wrap;html=1;" vertex="1" parent="1">
          <mxGeometry x="210" y="140" width="140" height="170" as="geometry" />
        </mxCell>
        <mxCell id="xu26yrdLODohL7Gaci-C-11" value="Authentication, Query Optimization Security" style="rounded=0;whiteSpace=wrap;html=1;" vertex="1" parent="1">
          <mxGeometry x="230" y="150" width="100" height="60" as="geometry" />
        </mxCell>
        <mxCell id="xu26yrdLODohL7Gaci-C-12" value="" style="rounded=0;whiteSpace=wrap;html=1;" vertex="1" parent="1">
          <mxGeometry x="380" y="80" width="120" height="60" as="geometry" />
        </mxCell>
        <mxCell id="xu26yrdLODohL7Gaci-C-13" value="Virtual Warehouses with Worker Nodes" style="text;html=1;align=center;verticalAlign=middle;resizable=0;points=[];autosize=1;strokeColor=none;fillColor=none;" vertex="1" parent="1">
          <mxGeometry x="325" y="40" width="230" height="30" as="geometry" />
        </mxCell>
        <mxCell id="xu26yrdLODohL7Gaci-C-14" value="" style="endArrow=classic;html=1;rounded=0;" edge="1" parent="1">
          <mxGeometry width="50" height="50" relative="1" as="geometry">
            <mxPoint x="170" y="220" as="sourcePoint" />
            <mxPoint x="210" y="220" as="targetPoint" />
          </mxGeometry>
        </mxCell>
        <mxCell id="xu26yrdLODohL7Gaci-C-15" value="" style="rounded=0;whiteSpace=wrap;html=1;" vertex="1" parent="1">
          <mxGeometry x="380" y="180" width="120" height="60" as="geometry" />
        </mxCell>
        <mxCell id="xu26yrdLODohL7Gaci-C-16" value="" style="rounded=0;whiteSpace=wrap;html=1;" vertex="1" parent="1">
          <mxGeometry x="380" y="290" width="120" height="60" as="geometry" />
        </mxCell>
        <mxCell id="xu26yrdLODohL7Gaci-C-17" value="Worker" style="rounded=0;whiteSpace=wrap;html=1;" vertex="1" parent="1">
          <mxGeometry x="385" y="110" width="40" height="20" as="geometry" />
        </mxCell>
        <mxCell id="xu26yrdLODohL7Gaci-C-18" value="" style="rounded=0;whiteSpace=wrap;html=1;" vertex="1" parent="1">
          <mxGeometry x="440" y="110" width="40" height="20" as="geometry" />
        </mxCell>
        <mxCell id="xu26yrdLODohL7Gaci-C-19" value="" style="rounded=0;whiteSpace=wrap;html=1;" vertex="1" parent="1">
          <mxGeometry x="385" y="215" width="40" height="20" as="geometry" />
        </mxCell>
        <mxCell id="xu26yrdLODohL7Gaci-C-20" value="" style="rounded=0;whiteSpace=wrap;html=1;" vertex="1" parent="1">
          <mxGeometry x="440" y="215" width="40" height="20" as="geometry" />
        </mxCell>
        <mxCell id="xu26yrdLODohL7Gaci-C-21" value="Worker" style="rounded=0;whiteSpace=wrap;html=1;" vertex="1" parent="1">
          <mxGeometry x="385" y="320" width="40" height="20" as="geometry" />
        </mxCell>
        <mxCell id="xu26yrdLODohL7Gaci-C-22" value="" style="rounded=0;whiteSpace=wrap;html=1;" vertex="1" parent="1">
          <mxGeometry x="440" y="320" width="40" height="20" as="geometry" />
        </mxCell>
        <mxCell id="xu26yrdLODohL7Gaci-C-23" value="Data Cache" style="rounded=1;whiteSpace=wrap;html=1;" vertex="1" parent="1">
          <mxGeometry x="405" y="290" width="70" height="30" as="geometry" />
        </mxCell>
        <mxCell id="xu26yrdLODohL7Gaci-C-24" value="Data Cache" style="rounded=1;whiteSpace=wrap;html=1;" vertex="1" parent="1">
          <mxGeometry x="425" y="180" width="70" height="30" as="geometry" />
        </mxCell>
        <mxCell id="xu26yrdLODohL7Gaci-C-25" value="Data Cache" style="rounded=1;whiteSpace=wrap;html=1;" vertex="1" parent="1">
          <mxGeometry x="425" y="80" width="70" height="30" as="geometry" />
        </mxCell>
        <mxCell id="xu26yrdLODohL7Gaci-C-26" value="" style="endArrow=classic;html=1;rounded=0;entryX=0;entryY=0.5;entryDx=0;entryDy=0;exitX=1;exitY=0.5;exitDx=0;exitDy=0;" edge="1" parent="1" source="xu26yrdLODohL7Gaci-C-10" target="xu26yrdLODohL7Gaci-C-12">
          <mxGeometry width="50" height="50" relative="1" as="geometry">
            <mxPoint x="310" y="270" as="sourcePoint" />
            <mxPoint x="360" y="220" as="targetPoint" />
          </mxGeometry>
        </mxCell>
        <mxCell id="xu26yrdLODohL7Gaci-C-27" value="" style="endArrow=classic;html=1;rounded=0;entryX=0;entryY=0.667;entryDx=0;entryDy=0;entryPerimeter=0;exitX=1;exitY=0.5;exitDx=0;exitDy=0;" edge="1" parent="1" source="xu26yrdLODohL7Gaci-C-10" target="xu26yrdLODohL7Gaci-C-15">
          <mxGeometry width="50" height="50" relative="1" as="geometry">
            <mxPoint x="310" y="270" as="sourcePoint" />
            <mxPoint x="360" y="220" as="targetPoint" />
          </mxGeometry>
        </mxCell>
        <mxCell id="xu26yrdLODohL7Gaci-C-28" value="" style="endArrow=classic;html=1;rounded=0;entryX=0;entryY=0.5;entryDx=0;entryDy=0;exitX=1;exitY=0.5;exitDx=0;exitDy=0;" edge="1" parent="1" source="xu26yrdLODohL7Gaci-C-10" target="xu26yrdLODohL7Gaci-C-16">
          <mxGeometry width="50" height="50" relative="1" as="geometry">
            <mxPoint x="280" y="360" as="sourcePoint" />
            <mxPoint x="360" y="220" as="targetPoint" />
          </mxGeometry>
        </mxCell>
        <mxCell id="xu26yrdLODohL7Gaci-C-29" value="" style="endArrow=classic;html=1;rounded=0;exitX=0;exitY=0.25;exitDx=0;exitDy=0;entryX=1.02;entryY=0.597;entryDx=0;entryDy=0;entryPerimeter=0;" edge="1" parent="1" source="xu26yrdLODohL7Gaci-C-8" target="xu26yrdLODohL7Gaci-C-12">
          <mxGeometry width="50" height="50" relative="1" as="geometry">
            <mxPoint x="310" y="270" as="sourcePoint" />
            <mxPoint x="360" y="220" as="targetPoint" />
          </mxGeometry>
        </mxCell>
        <mxCell id="xu26yrdLODohL7Gaci-C-30" value="" style="endArrow=classic;html=1;rounded=0;exitX=0;exitY=0.484;exitDx=0;exitDy=0;exitPerimeter=0;" edge="1" parent="1" source="xu26yrdLODohL7Gaci-C-8">
          <mxGeometry width="50" height="50" relative="1" as="geometry">
            <mxPoint x="310" y="270" as="sourcePoint" />
            <mxPoint x="500" y="220" as="targetPoint" />
          </mxGeometry>
        </mxCell>
        <mxCell id="xu26yrdLODohL7Gaci-C-31" value="" style="endArrow=classic;html=1;rounded=0;exitX=-0.012;exitY=0.818;exitDx=0;exitDy=0;exitPerimeter=0;" edge="1" parent="1" source="xu26yrdLODohL7Gaci-C-8">
          <mxGeometry width="50" height="50" relative="1" as="geometry">
            <mxPoint x="530" y="340" as="sourcePoint" />
            <mxPoint x="500" y="320" as="targetPoint" />
          </mxGeometry>
        </mxCell>
      </root>
    </mxGraphModel>
  </diagram>
  <diagram id="jjr2oXPtr3cQU2BlLk-b" name="Page-2">
    <mxGraphModel dx="541" dy="355" grid="1" gridSize="10" guides="1" tooltips="1" connect="1" arrows="1" fold="1" page="1" pageScale="1" pageWidth="827" pageHeight="1169" math="0" shadow="0">
      <root>
        <mxCell id="0" />
        <mxCell id="1" parent="0" />
        <mxCell id="nZwWr8klVCJU9xsyJVPw-1" value="User" style="shape=umlActor;verticalLabelPosition=bottom;verticalAlign=top;html=1;outlineConnect=0;" vertex="1" parent="1">
          <mxGeometry x="70" y="190" width="30" height="60" as="geometry" />
        </mxCell>
        <mxCell id="nZwWr8klVCJU9xsyJVPw-2" value="" style="endArrow=classic;html=1;rounded=0;" edge="1" parent="1" source="nZwWr8klVCJU9xsyJVPw-1">
          <mxGeometry width="50" height="50" relative="1" as="geometry">
            <mxPoint x="390" y="350" as="sourcePoint" />
            <mxPoint x="170" y="220" as="targetPoint" />
          </mxGeometry>
        </mxCell>
        <mxCell id="nZwWr8klVCJU9xsyJVPw-7" value="Query" style="edgeLabel;html=1;align=center;verticalAlign=middle;resizable=0;points=[];" vertex="1" connectable="0" parent="nZwWr8klVCJU9xsyJVPw-2">
          <mxGeometry x="-0.0902" y="-1" relative="1" as="geometry">
            <mxPoint as="offset" />
          </mxGeometry>
        </mxCell>
        <mxCell id="nZwWr8klVCJU9xsyJVPw-13" style="edgeStyle=orthogonalEdgeStyle;rounded=0;orthogonalLoop=1;jettySize=auto;html=1;exitX=1;exitY=0.5;exitDx=0;exitDy=0;" edge="1" parent="1" source="nZwWr8klVCJU9xsyJVPw-8">
          <mxGeometry relative="1" as="geometry">
            <mxPoint x="340" y="225" as="targetPoint" />
          </mxGeometry>
        </mxCell>
        <mxCell id="nZwWr8klVCJU9xsyJVPw-8" value="parsing, object resolution, access control, and plan optimization" style="rounded=0;whiteSpace=wrap;html=1;" vertex="1" parent="1">
          <mxGeometry x="170" y="145" width="130" height="160" as="geometry" />
        </mxCell>
        <mxCell id="nZwWr8klVCJU9xsyJVPw-9" value="Cloud Service Layer" style="text;html=1;align=center;verticalAlign=middle;resizable=0;points=[];autosize=1;strokeColor=none;fillColor=none;" vertex="1" parent="1">
          <mxGeometry x="160" y="115" width="130" height="30" as="geometry" />
        </mxCell>
        <mxCell id="nZwWr8klVCJU9xsyJVPw-11" value="&lt;span style=&quot;font-family: Arial, sans-serif; font-size: 17px; text-align: start; background-color: rgb(255, 255, 255);&quot;&gt;independent compute cluster&lt;/span&gt;" style="rounded=0;whiteSpace=wrap;html=1;" vertex="1" parent="1">
          <mxGeometry x="340" y="142.5" width="120" height="165" as="geometry" />
        </mxCell>
        <mxCell id="nZwWr8klVCJU9xsyJVPw-12" value="&lt;span style=&quot;color: rgb(0, 0, 0); font-family: Helvetica; font-size: 12px; font-style: normal; font-variant-ligatures: normal; font-variant-caps: normal; font-weight: 400; letter-spacing: normal; orphans: 2; text-align: center; text-indent: 0px; text-transform: none; widows: 2; word-spacing: 0px; -webkit-text-stroke-width: 0px; background-color: rgb(248, 249, 250); text-decoration-thickness: initial; text-decoration-style: initial; text-decoration-color: initial; float: none; display: inline !important;&quot;&gt;Virtual Warehouse&lt;/span&gt;" style="text;whiteSpace=wrap;html=1;" vertex="1" parent="1">
          <mxGeometry x="350" y="115" width="140" height="40" as="geometry" />
        </mxCell>
      </root>
    </mxGraphModel>
  </diagram>
</mxfile>
